<svg width="32" height="32" viewBox="0 0 32 32" fill="none"
  xmlns="http://www.w3.org/2000/svg">
  <path fill-rule="evenodd" clip-rule="evenodd" d="M26 24.8889H7.11111V6H6V26H26V24.8889Z" fill="#9DA7B2"/>
  <path fill-rule="evenodd" clip-rule="evenodd" d="M12 9C11.4477 9 11 9.44772 11 10V11H8.5C8.22386 11 8 11.2239 8 11.5C8 11.7761 8.22386 12 8.5 12H11V13C11 13.5523 11.4477 14 12 14H17C17.5523 14 18 13.5523 18 13V12H25.5C25.7761 12 26 11.7761 26 11.5C26 11.2239 25.7761 11 25.5 11H18V10C18 9.44772 17.5523 9 17 9H12Z" fill="#1A8FAB"/>
  <path fill-rule="evenodd" clip-rule="evenodd" d="M18 17C17.4477 17 17 17.4477 17 18V19H8.5C8.22386 19 8 19.2239 8 19.5C8 19.7761 8.22386 20 8.5 20H17V21C17 21.5523 17.4477 22 18 22H23C23.5523 22 24 21.5523 24 21V20H25.5C25.7761 20 26 19.7761 26 19.5C26 19.2239 25.7761 19 25.5 19H24V18C24 17.4477 23.5523 17 23 17H18Z" fill="#72D2E9"/>
</svg>
