<svg width="32" height="32" viewBox="0 0 32 32" fill="none"
  xmlns="http://www.w3.org/2000/svg">
  <path fill-rule="evenodd" clip-rule="evenodd" d="M6.91414 15.5069L7.93926 14.4818C8.13453 14.2865 8.13453 13.9699 7.93926 13.7747C7.744 13.5794 7.42742 13.5794 7.23216 13.7747L5.35348 15.6534C5.15822 15.8486 5.15822 16.1652 5.35348 16.3605L7.23216 18.2391C7.42742 18.4344 7.744 18.4344 7.93927 18.2391C8.13453 18.0439 8.13453 17.7273 7.93927 17.532L6.91414 16.5069L9.70703 16.5069C9.98317 16.5069 10.207 16.2831 10.207 16.0069C10.207 15.7308 9.98317 15.5069 9.70703 15.5069L6.91414 15.5069Z" fill="#7D8994"/>
  <path fill-rule="evenodd" clip-rule="evenodd" d="M16.4929 6.8072L17.518 7.83233C17.7133 8.02759 18.0299 8.02759 18.2251 7.83233C18.4204 7.63707 18.4204 7.32049 18.2251 7.12522L16.3465 5.24654C16.1512 5.05128 15.8346 5.05128 15.6394 5.24654L13.7607 7.12522C13.5654 7.32049 13.5654 7.63707 13.7607 7.83233C13.9559 8.02759 14.2725 8.02759 14.4678 7.83233L15.4929 6.80721L15.4929 9.6001C15.4929 9.87624 15.7168 10.1001 15.9929 10.1001C16.269 10.1001 16.4929 9.87624 16.4929 9.6001L16.4929 6.8072Z" fill="#7D8994"/>
  <path fill-rule="evenodd" clip-rule="evenodd" d="M16.4929 25.1928L17.518 24.1677C17.7133 23.9724 18.0299 23.9724 18.2251 24.1677C18.4204 24.3629 18.4204 24.6795 18.2251 24.8748L16.3465 26.7535C16.1512 26.9487 15.8346 26.9487 15.6394 26.7535L13.7607 24.8748C13.5654 24.6795 13.5654 24.3629 13.7607 24.1677C13.9559 23.9724 14.2725 23.9724 14.4678 24.1677L15.4929 25.1928L15.4929 22.3999C15.4929 22.1238 15.7168 21.8999 15.9929 21.8999C16.269 21.8999 16.4929 22.1238 16.4929 22.3999L16.4929 25.1928Z" fill="#7D8994"/>
  <path fill-rule="evenodd" clip-rule="evenodd" d="M24.9921 15.5069L23.967 14.4818C23.7717 14.2865 23.7717 13.9699 23.967 13.7747C24.1622 13.5794 24.4788 13.5794 24.6741 13.7747L26.5528 15.6534C26.748 15.8486 26.748 16.1652 26.5528 16.3605L24.6741 18.2391C24.4788 18.4344 24.1622 18.4344 23.967 18.2391C23.7717 18.0439 23.7717 17.7273 23.967 17.532L24.9921 16.5069L22.1992 16.5069C21.9231 16.5069 21.6992 16.2831 21.6992 16.0069C21.6992 15.7308 21.9231 15.5069 22.1992 15.5069L24.9921 15.5069Z" fill="#7D8994"/>
  <circle cx="16" cy="16" r="4.5" stroke="#1A8FAB"/>
  <path d="M12.25 14.75L13.5 16L14.125 15.375V14.75H15.375V12.875L16.625 13.5L17.875 12.25" stroke="#1A8FAB" stroke-linecap="round" stroke-linejoin="round"/>
  <path d="M16 20.375L15.375 18.5L16 17.25V16H17.875L18.5 17.25H19.75" stroke="#1A8FAB" stroke-linecap="round" stroke-linejoin="round"/>
</svg>
