<svg width="32" height="32" viewBox="0 0 32 32" fill="none" xmlns="http://www.w3.org/2000/svg">
<g transform="translate(4 4)">
<path fill-rule="evenodd" clip-rule="evenodd" d="M7.75 2C7.75 1.44772 8.19772 1 8.75 1H11.75C12.3023 1 12.75 1.44772 12.75 2V3.0315C13.1813 3.14252 13.5 3.53404 13.5 4V13C13.5 13.5523 13.0523 14 12.5 14V14.5C12.5 15.0523 12.0523 15.5 11.5 15.5H9C8.44772 15.5 8 15.0523 8 14.5L8 14C7.44771 14 7 13.5523 7 13V4C7 3.53404 7.31869 3.14252 7.75 3.0315V2ZM9 14V14.5H11.5V14H9ZM11.75 2V3H8.75V2H11.75ZM12.5 4H8V13H12.5V4Z" fill="#1A8FAB"/>
<path fill-rule="evenodd" clip-rule="evenodd" d="M17.5 5.5H11.5H11.4989L11.4975 5.50001L11.4949 5.50002L11.4876 5.50011L11.4665 5.50064C11.4496 5.50121 11.4272 5.50225 11.3999 5.5042C11.3456 5.50808 11.2713 5.5156 11.1834 5.53024C11.0101 5.55914 10.7713 5.61786 10.5264 5.74029C10.2796 5.86369 10.0176 6.05666 9.81835 6.35546C9.61706 6.6574 9.5 7.03751 9.5 7.5C9.5 7.96249 9.61706 8.3426 9.81835 8.64454C10.0176 8.94334 10.2796 9.13631 10.5264 9.25971C10.7713 9.38214 11.0101 9.44086 11.1834 9.46976C11.2713 9.4844 11.3456 9.49192 11.3999 9.4958C11.4272 9.49775 11.4496 9.49879 11.4665 9.49936L11.4876 9.49989L11.4949 9.49998L11.4978 9.5L11.499 9.5L11.5 9.5H16V16.3C16 16.4105 15.9105 16.5 15.8 16.5H7C6.44772 16.5 6 16.9477 6 17.5V18C6 18.5523 6.44772 19 7 19H16C17.3807 19 18.5 17.8807 18.5 16.5V9V8.5V8V6.5C18.5 5.94772 18.0523 5.5 17.5 5.5ZM17.5 8V6.5H11.5031L11.4998 6.50009C11.4947 6.50026 11.4849 6.50067 11.4712 6.50166C11.4434 6.50364 11.4006 6.50784 11.3478 6.51663C11.2399 6.53461 11.1037 6.56964 10.9736 6.63471C10.8454 6.69881 10.7324 6.78709 10.6504 6.91016C10.5704 7.0301 10.5 7.21249 10.5 7.5C10.5 7.78751 10.5704 7.9699 10.6504 8.08984C10.7324 8.21291 10.8454 8.30119 10.9736 8.36529C11.1037 8.43036 11.2399 8.46539 11.3478 8.48337C11.4006 8.49216 11.4434 8.49636 11.4712 8.49834C11.4849 8.49933 11.4949 8.49983 11.5 8.5H17.5V8ZM17.5 9.5H17V16.3C17 16.9627 16.4627 17.5 15.8 17.5H7V18H16C16.8284 18 17.5 17.3284 17.5 16.5V9.5Z" fill="#7D8994"/>
<path fill-rule="evenodd" clip-rule="evenodd" d="M7.5 18.5V20H6C5.44772 20 5 20.4477 5 21V22C5 22.5523 5.44772 23 6 23H18.5C19.0523 23 19.5 22.5523 19.5 22V21C19.5 20.4477 19.0523 20 18.5 20H15.5V18.5H14.5V20H8.5V18.5H7.5ZM6 21H8H18.5V22H6V21Z" fill="#7D8994"/>
</g>
</svg>
