<svg width="113" height="61" viewBox="0 0 113 61" fill="none" xmlns="http://www.w3.org/2000/svg">
<path d="M98.444 11.4673C91.3045 11.4673 85.5146 17.2544 85.5146 24.3938C85.5146 31.5333 91.3032 37.3218 98.444 37.3218C105.585 37.3218 111.373 31.5333 111.373 24.3938C111.373 17.2544 105.583 11.4673 98.444 11.4673ZM98.4579 32.1606H98.4565C94.1793 32.1537 90.7009 28.6711 90.7009 24.3924C90.7009 20.1138 94.1862 16.6228 98.4705 16.6228C102.755 16.6228 106.214 20.0706 106.214 24.3924C106.214 28.7143 102.735 32.1537 98.4579 32.1606Z" fill="#2C1912"/>
<path d="M69.9797 11.4645H62.2227V16.6354H57.0518V45.076H62.2227V32.1495H67.3936V37.3204H69.9783C77.1177 37.3204 82.9076 31.5332 82.9076 24.3924C82.9076 17.2516 77.1205 11.4645 69.9797 11.4645ZM69.9783 32.162C65.6941 32.162 62.2073 28.6766 62.2073 24.3924C62.2073 20.1082 65.6941 16.6228 69.9783 16.6228C74.2625 16.6228 77.7493 20.1082 77.7493 24.3924C77.7493 28.6766 74.2625 32.162 69.9783 32.162Z" fill="#2C1912"/>
<path d="M41.3947 11.4645H33.6377V16.6354H28.4668V26.9772H33.6377V32.1481H28.4668V45.076H33.6377V37.3204H41.3933C48.5328 37.3204 54.3227 31.5332 54.3227 24.3924C54.3227 17.2516 48.5356 11.4645 41.3947 11.4645ZM41.3933 32.1606C37.1091 32.1606 33.6251 28.6766 33.6251 24.3924C33.6251 20.1082 37.1091 16.6214 41.3933 16.6214C45.6776 16.6214 49.1615 20.1068 49.1615 24.3924C49.1615 28.678 45.6776 32.1606 41.3933 32.1606Z" fill="#2C1912"/>
<path d="M12.9279 11.4673C5.7885 11.4673 0 17.2544 0 24.3952C0 31.5361 5.78432 37.3204 12.9238 37.3232H18.103L18.1002 32.1648H12.9279C9.54992 32.1648 6.66961 29.9969 5.60169 26.9786H25.598C25.598 26.9772 26.914 21.8328 23.5402 17.009C23.2154 16.5448 19.7802 11.4673 12.9279 11.4673ZM5.60029 21.8063C6.66403 18.7824 9.54713 16.6089 12.9293 16.6089C16.3115 16.6089 19.196 18.7824 20.2598 21.8063H5.60029Z" fill="#2C1912"/>
<path d="M3.876 57.1964C3.156 57.1964 2.532 56.9204 2.16 56.4404V57.0764H0.804V48.9164H2.184V51.9284C2.544 51.4604 3.216 51.1484 4.008 51.1484C5.412 51.1484 6.516 52.1684 6.516 54.1004C6.516 56.0804 5.448 57.1964 3.876 57.1964ZM2.184 54.6404C2.184 55.4924 2.832 56.0204 3.672 56.0204C4.572 56.0204 5.136 55.2764 5.136 54.1364C5.136 53.0084 4.584 52.3244 3.672 52.3244C2.856 52.3244 2.184 52.8524 2.184 53.7644V54.6404ZM7.73147 59.4044V58.1804H8.23547C8.76347 58.1804 9.11147 58.0124 9.32747 57.4844L9.45947 57.1724L7.02347 51.2684H8.54747L10.1795 55.5044L11.6195 51.2684H13.0595L10.6955 57.5924C10.1795 58.9964 9.61547 59.4044 8.41547 59.4044H7.73147Z" fill="black"/>
<path fill-rule="evenodd" clip-rule="evenodd" d="M20.4257 57.0197H17V49.1333H20.4257C22.8932 49.1333 24.1289 50.3763 24.1289 52.8613C24.1279 55.633 22.8932 57.0197 20.4257 57.0197ZM18.4637 55.7502H20.204C21.8436 55.7502 22.6624 54.7875 22.6624 52.8603C22.6624 51.2199 21.8426 50.3992 20.204 50.3992H18.4637V55.7502Z" fill="#2C1912"/>
<path fill-rule="evenodd" clip-rule="evenodd" d="M25.6622 57.0197H24.1582L27.5133 49.1333H29.0879L32.5144 57.0197H30.9399L29.9452 54.869H27.4144L27.9173 53.6004H29.5587L28.2653 50.6382L25.6622 57.0197Z" fill="#2C1912"/>
<path fill-rule="evenodd" clip-rule="evenodd" d="M31.6875 49.1333H37.6833V50.401H35.4182V57.0197H33.9545V50.401H31.6875V49.1333Z" fill="#2C1912"/>
<path fill-rule="evenodd" clip-rule="evenodd" d="M38.4356 57.0197H36.9316L40.2868 49.1333H41.8613L45.2879 57.0197H43.7115L42.7168 54.869H40.186L40.6889 53.6004H42.3303L41.0379 50.6382L38.4356 57.0197Z" fill="#2C1912"/>
<path fill-rule="evenodd" clip-rule="evenodd" d="M49.6854 57.0197H46.2598V49.1333H49.6854C52.1548 49.1333 53.3886 50.3763 53.3886 52.8613C53.3886 55.633 52.1548 57.0197 49.6854 57.0197ZM47.7244 55.7502H49.4647C51.1033 55.7502 51.9249 54.7875 51.9249 52.8603C51.9249 51.2199 51.1042 50.3992 49.4647 50.3992H47.7244V55.7502Z" fill="#2C1912"/>
<path fill-rule="evenodd" clip-rule="evenodd" d="M54.3809 53.0874C54.3809 50.4128 55.7044 49.0764 58.3497 49.0764C60.9546 49.0764 62.2553 50.4128 62.2553 53.0874C62.2553 55.7464 60.9537 57.0764 58.3497 57.0764C55.8216 57.0764 54.499 55.7464 54.3809 53.0874ZM58.3497 55.8051C59.9398 55.8051 60.7357 54.8882 60.7357 53.0526C60.7357 51.2463 59.9398 50.3423 58.3497 50.3423C56.7174 50.3423 55.9013 51.2463 55.9013 53.0526C55.9013 54.8882 56.7174 55.8051 58.3497 55.8051Z" fill="#2C1912"/>
<path fill-rule="evenodd" clip-rule="evenodd" d="M68.3658 53.8284V55.675C68.0278 55.7629 67.7256 55.8069 67.459 55.8069C65.6684 55.8069 64.7744 54.8598 64.7744 52.9665C64.7744 51.2179 65.7233 50.345 67.6202 50.345C68.4125 50.345 69.149 50.4925 69.8304 50.7865V49.462C69.149 49.2056 68.375 49.0764 67.5094 49.0764C64.6727 49.0764 63.2539 50.3725 63.2539 52.9665C63.2539 55.7052 64.648 57.0764 67.4371 57.0764C68.3961 57.0764 69.1929 56.9372 69.8304 56.6569V52.5305H67.4655L66.9708 53.8275L68.3658 53.8284Z" fill="#2C1912"/>
</svg>
