<svg width="310" height="102" viewBox="0 0 310 102" fill="none" xmlns="http://www.w3.org/2000/svg">
<path fill-rule="evenodd" clip-rule="evenodd" d="M1.24316 38.6794C1.24316 49.4958 4.69643 58.3287 11.7558 64.9431L11.7665 64.953C18.9183 71.5623 28.5731 74.757 40.4701 74.757C43.544 74.757 47.3362 74.1798 51.7952 73.0902C55.8491 72.1191 59.4296 70.6453 62.5026 68.641C64.2153 67.5238 64.722 65.4301 64.0131 63.7156L60.2611 54.6413C59.3437 52.4225 56.7415 51.4379 54.5455 52.3722C52.228 53.3582 50.1485 54.1496 48.3031 54.752C46.1779 55.3884 43.7118 55.723 40.8807 55.723C36.0399 55.723 32.3597 54.567 29.6399 52.4457C27.4967 50.7054 25.9559 48.5266 25.0276 45.8548H64.8822C67.2442 45.8548 69.159 43.9827 69.159 41.6733V38.4118C69.159 28.8434 66.5874 20.469 61.3749 13.3851C56.045 5.92215 47.6869 2.33409 36.775 2.33409C25.9878 2.33409 17.218 5.6203 10.7214 12.357L10.7103 12.3687C4.3372 19.079 1.24316 27.9232 1.24316 38.6794ZM43.8097 24.025L43.8264 24.04L43.8433 24.0547C45.3255 25.3366 46.558 27.275 47.4385 30.0321H25.0826C25.8613 27.4407 27.0644 25.5333 28.6156 24.1852L28.6318 24.1711L28.6477 24.1567C30.68 22.3169 33.2025 21.3681 36.3644 21.3681C39.4447 21.3681 41.8743 22.2783 43.8097 24.025Z" fill="#752570"/>
<path fill-rule="evenodd" clip-rule="evenodd" d="M101.447 71.4894C103.267 72.2813 105.145 72.9431 107.078 73.4747L107.094 73.4791C110.234 74.3164 113.12 74.757 115.731 74.757C125.794 74.757 133.837 71.2217 139.58 64.0611C145.309 57.0325 148.115 48.3464 148.115 38.1441C148.115 27.9552 145.408 19.2768 139.87 12.2479C134.202 5.05357 126.048 1.53125 115.731 1.53125C112.326 1.53125 108.527 2.26332 104.366 3.65018C100.893 4.80786 97.7498 6.29412 94.9497 8.11803L93.0164 5.68787C92.2062 4.66932 90.9603 4.07358 89.6405 4.07358H83.7922C81.4301 4.07358 79.5153 5.94568 79.5153 8.25504V97.8174C79.5153 100.454 81.9805 102.432 84.6254 101.919L98.0033 99.3206C100.005 98.9318 101.447 97.2145 101.447 95.2192V71.4894ZM105.705 21.5373L105.732 21.5289L105.759 21.5197C107.667 20.8708 109.436 20.5653 111.078 20.5653C117.332 20.5653 120.8 22.4236 122.467 25.4797C124.473 29.1569 125.5 33.3616 125.5 38.1441C125.5 42.2085 124.382 46.2774 122.074 50.3742C120.077 53.8397 116.612 55.723 111.078 55.723C109.44 55.723 107.676 55.4189 105.773 54.7734C104.276 54.2402 101.748 51.7088 101.447 50.7665V25.4796C101.447 24.5293 104.236 21.9944 105.705 21.5373Z" fill="#752570"/>
<path fill-rule="evenodd" clip-rule="evenodd" d="M270.378 74.7569L270.396 74.7571L270.414 74.757C281.602 74.6643 290.82 71.4991 297.856 65.098C304.938 58.6546 308.391 49.8957 308.391 39.0808C308.391 28.3122 305.199 19.4265 298.649 12.635C292.13 5.68822 282.97 2.33409 271.491 2.33409C260.371 2.33409 251.337 5.55543 244.649 12.1899L244.638 12.201C238.06 18.8242 234.864 27.6394 234.864 38.4118C234.864 49.2419 237.904 58.0916 244.194 64.7217L244.205 64.7334C250.618 71.3896 259.436 74.6639 270.378 74.7569ZM281.961 25.8841L281.979 25.9076L281.997 25.9306C284.428 28.9202 285.776 33.2187 285.776 39.0808C285.776 45.2973 284.25 49.4064 281.645 51.8878C278.915 54.3991 275.323 55.723 270.67 55.723C265.977 55.723 262.811 54.265 260.753 51.6157C258.677 48.8247 257.48 44.4823 257.48 38.278C257.48 32.1147 258.888 27.9505 261.299 25.3714C263.733 22.7691 267.17 21.3681 271.902 21.3681C276.431 21.3681 279.68 22.9109 281.961 25.8841Z" fill="#752570"/>
<path fill-rule="evenodd" clip-rule="evenodd" d="M179.107 71.4894C180.928 72.2813 182.805 72.9431 184.738 73.4747L184.755 73.4791C187.895 74.3164 190.781 74.757 193.392 74.757C203.455 74.757 211.497 71.2217 217.241 64.0611C222.97 57.0325 225.776 48.3464 225.776 38.1441C225.776 27.9552 223.069 19.2768 217.531 12.2479C211.863 5.05357 203.708 1.53125 193.392 1.53125C189.987 1.53125 186.188 2.26332 182.027 3.65018C178.554 4.80786 175.41 6.29412 172.61 8.11803L170.677 5.68787C169.867 4.66932 168.621 4.07358 167.301 4.07358H161.453C159.091 4.07358 157.176 5.94568 157.176 8.25504V97.8174C157.176 100.454 159.641 102.432 162.286 101.919L175.664 99.3206C177.666 98.9318 179.107 97.2145 179.107 95.2193V71.4894ZM183.365 21.5373L183.393 21.5289L183.42 21.5197C185.328 20.8708 187.097 20.5653 188.739 20.5653C194.993 20.5653 198.46 22.4236 200.127 25.4797C202.133 29.1569 203.16 33.3616 203.16 38.1441C203.16 42.2085 202.042 46.2774 199.735 50.3742C197.737 53.8397 194.273 55.723 188.739 55.723C187.101 55.723 185.336 55.4189 183.434 54.7734C181.936 54.2402 179.409 51.7088 179.107 50.7665V25.4796C179.107 24.5293 181.896 21.9944 183.365 21.5373Z" fill="#752570"/>
<circle cx="271.5" cy="38.5" r="33.5" fill="#752570"/>
<path d="M275.688 11.2812C280.922 20.7031 277.782 30.125 271.5 35.3594C264.172 30.125 262.079 19.6562 267.313 11.2812C270.454 12.3281 271.224 14.4219 271.5 14.4219C271.777 14.4219 272.547 12.3281 275.688 11.2812Z" fill="#72D2E9"/>
<path d="M298.624 33.1652C291.56 41.3064 281.632 41.5776 274.565 37.4655C276.978 28.789 286.099 23.241 295.759 25.2953C295.85 28.6046 294.146 30.0449 294.24 30.3044C294.335 30.5639 296.566 30.572 298.624 33.1652Z" fill="#F8C630"/>
<path d="M285.635 62.4638C275.569 58.6108 271.919 49.3745 273.366 41.3272C282.344 40.6265 290.677 47.3002 292.051 57.0804C288.972 58.2972 287.036 57.1887 286.824 57.3662C286.613 57.5438 287.368 59.6431 285.635 62.4638Z" fill="white"/>
<path d="M250.952 56.9102C252.998 46.3281 261.46 41.1293 269.637 41.157C271.886 49.8772 266.76 59.2426 257.367 62.2936C255.634 59.4729 256.39 57.3736 256.178 57.1961C255.967 57.0185 254.03 58.127 250.952 56.9102Z" fill="white"/>
<path d="M247.081 25.3392C257.725 23.643 265.504 29.8166 268.274 37.5093C260.849 42.6053 250.296 40.9922 244.216 33.2091C246.274 30.6159 248.505 30.6078 248.6 30.3483C248.694 30.0888 246.99 28.6485 247.081 25.3392Z" fill="white"/>
</svg>
