<svg width="93" height="28" viewBox="0 0 93 28" fill="none" xmlns="http://www.w3.org/2000/svg">
    <g clip-path="url(#clip0_1024_128299)">
        <path d="M82.0081 0.00195312C76.0606 0.00195312 71.2373 4.82289 71.2373 10.7704C71.2373 16.7179 76.0594 21.54 82.0081 21.54C87.9567 21.54 92.7788 16.7179 92.7788 10.7704C92.7788 4.82289 87.9555 0.00195312 82.0081 0.00195312ZM82.0197 17.2405H82.0185C78.4554 17.2347 75.5577 14.3335 75.5577 10.7692C75.5577 7.20491 78.4612 4.29678 82.0301 4.29678C85.5991 4.29678 88.4805 7.16891 88.4805 10.7692C88.4805 14.3695 85.5828 17.2347 82.0197 17.2405Z"
              fill="#ffffff"/>
        <path d="M58.296 0H51.834V4.3076H47.5264V28H51.834V17.2316H56.1416V21.5392H58.2948C64.2423 21.5392 69.0655 16.7182 69.0655 10.7696C69.0655 4.82094 64.2446 0 58.296 0ZM58.2948 17.242C54.7258 17.242 51.8212 14.3385 51.8212 10.7696C51.8212 7.20063 54.7258 4.29715 58.2948 4.29715C61.8638 4.29715 64.7684 7.20063 64.7684 10.7696C64.7684 14.3385 61.8638 17.242 58.2948 17.242Z"
              fill="#ffffff"/>
        <path d="M34.4844 0H28.0224V4.3076H23.7148V12.9228H28.0224V17.2304H23.7148V28H28.0224V21.5392H34.4833C40.4308 21.5392 45.254 16.7182 45.254 10.7696C45.254 4.82094 40.4331 0 34.4844 0ZM34.4833 17.2409C30.9143 17.2409 28.012 14.3385 28.012 10.7696C28.012 7.20063 30.9143 4.29599 34.4833 4.29599C38.0522 4.29599 40.9545 7.19947 40.9545 10.7696C40.9545 14.3397 38.0522 17.2409 34.4833 17.2409Z"
              fill="#ffffff"/>
        <path d="M10.7696 0.00195312C4.8221 0.00195312 0 4.82289 0 10.7715C0 16.7202 4.81862 21.5388 10.7661 21.5411H15.0807L15.0784 17.244H10.7696C7.95554 17.244 5.5561 15.438 4.66647 12.9236H21.3243C21.3243 12.9224 22.4207 8.6369 19.6101 4.61849C19.3395 4.23174 16.4778 0.00195312 10.7696 0.00195312ZM4.66531 8.61484C5.55145 6.09578 7.95321 4.28517 10.7707 4.28517C13.5883 4.28517 15.9912 6.09578 16.8773 8.61484H4.66531Z"
              fill="#ffffff"/>
    </g>
    <defs>
        <clipPath id="clip0_1024_128299">
            <rect width="92.779" height="28" fill="white"/>
        </clipPath>
    </defs>
</svg>
