<svg version="1.1" xmlns="http://www.w3.org/2000/svg" viewBox="0 0 1498.953125 374.3268754280547" width="1498.953125" height="374.3268754280547">
  <!-- svg-source:excalidraw -->
  
  <defs>
    <style>
      @font-face {
        font-family: "Virgil";
        src: url("https://excalidraw.com/Virgil.woff2");
      }
      @font-face {
        font-family: "Cascadia";
        src: url("https://excalidraw.com/Cascadia.woff2");
      }
    </style>
  </defs>
  <rect x="0" y="0" width="1498.953125" height="374.3268754280547" fill="#ffffff"></rect><g stroke-linecap="round" transform="translate(10 210.68234417805468) rotate(0 114.5 23)"><path d="M0.52 0.23 C84.53 1.87, 169.96 0.37, 230.22 0.66 M-0.69 0.7 C71.74 1.54, 145.04 1.75, 229.73 0.7 M229.26 -0.66 C228.23 12.17, 228.83 22.41, 227.37 44.41 M228.6 0.7 C228.81 16.45, 228.67 34.61, 228.95 46.97 M229.52 45.7 C145.37 43.89, 62.5 44.17, 0.09 47.15 M228.44 46.02 C180.31 44.51, 129.88 44.93, 0.11 46.07 M-1.42 47.14 C0.76 35.25, 0.7 22.52, 0.11 -0.79 M-0.76 45.75 C1.3 28.12, 1.29 12.95, -0.52 -0.77" stroke="#000000" stroke-width="1" fill="none"></path></g><g transform="translate(15 221.18234417805468) rotate(0 109.5 12.5)"><text x="109.5" y="18" font-family="Virgil, Segoe UI Emoji" font-size="20px" fill="#000000" text-anchor="middle" style="white-space: pre;" direction="ltr">Assignment sources</text></g><g stroke-linecap="round" transform="translate(331.671875 100.02218792805468) rotate(0 578.640625 132.15234375)"><path d="M0.59 -0.72 C303.66 -0.45, 608.32 -0.06, 1156.91 0.61 M0.22 0.18 C297.67 -2.68, 594.95 -2.81, 1157.55 -0.27 M1158.86 -1.49 C1157.24 92.72, 1154.86 181.63, 1157.07 264.41 M1157.88 -0.57 C1158.48 73.62, 1157.66 146.72, 1157.62 264.94 M1157.84 264.83 C919.99 267.58, 684.27 266.85, -0.49 264.73 M1157.4 264.35 C788.19 264.61, 418.82 264.35, 0.28 264.2 M-0.42 265.19 C0.9 183.27, 0.14 104.08, 0.05 -1.26 M0.47 264.33 C-2.08 206.06, -2.09 147.18, -0.17 -0.45" stroke="#000000" stroke-width="1" fill="none"></path></g><g transform="translate(343.59734622374435 111.55646292617428) rotate(0 98.5 12.5)"><text x="0" y="18" font-family="Virgil, Segoe UI Emoji" font-size="20px" fill="#000000" text-anchor="start" style="white-space: pre;" direction="ltr">For each experiment</text></g><g stroke-linecap="round"><g transform="translate(240.07226107226109 234.17739176190992) rotate(0 44.80857360408629 0.7651968408135303)"><path d="M0.24 0.31 C15.48 0.56, 75.68 1.84, 90.71 2.12 M-1.09 -0.57 C14.06 -0.74, 74.73 0.17, 89.83 0.24" stroke="#000000" stroke-width="1" fill="none"></path></g><g transform="translate(240.07226107226109 234.17739176190992) rotate(0 44.80857360408629 0.7651968408135303)"><path d="M62.06 10.42 C69.07 7.43, 75.72 3.6, 88.26 1.23 M62.16 10.94 C69.23 8.25, 74.9 5.59, 89.03 -0.68" stroke="#000000" stroke-width="1" fill="none"></path></g><g transform="translate(240.07226107226109 234.17739176190992) rotate(0 44.80857360408629 0.7651968408135303)"><path d="M62.27 -10.1 C69.34 -8.14, 75.93 -7.03, 88.26 1.23 M62.37 -9.58 C69.21 -7.39, 74.83 -5.15, 89.03 -0.68" stroke="#000000" stroke-width="1" fill="none"></path></g></g><g stroke-linecap="round" transform="translate(349.953125 206.55734417805468) rotate(0 114.5 30)"><path d="M-0.07 1.09 C66.42 -0.76, 133.56 -1.84, 230.6 -1.38 M0.47 0.65 C64.19 -1.07, 127.57 -1.4, 228.43 0.29 M228.43 0.51 C228.27 20.93, 227.82 38.56, 228.92 59.14 M229.25 0.27 C229.12 21.93, 228.98 42.72, 229.89 60.39 M229.8 61.06 C176.58 60.52, 126.72 59.67, -0.88 58.78 M229.44 60.84 C168.71 58.91, 108.5 58.04, 0.31 59.28 M0.15 61.5 C-0.89 38.49, 0.72 19.75, 1.1 1.11 M-0.78 60.22 C0.8 35.57, 0.62 12.34, -0.59 -0.76" stroke="#000000" stroke-width="1" fill="none"></path></g><g transform="translate(354.953125 211.55734417805468) rotate(0 109.5 25)"><text x="109.5" y="18" font-family="Virgil, Segoe UI Emoji" font-size="20px" fill="#000000" text-anchor="middle" style="white-space: pre;" direction="ltr">Enriched Metric </text><text x="109.5" y="43" font-family="Virgil, Segoe UI Emoji" font-size="20px" fill="#000000" text-anchor="middle" style="white-space: pre;" direction="ltr">Events</text></g><g stroke-linecap="round" transform="translate(634.87109375 207.56125042805468) rotate(0 114.5 30)"><path d="M-0.36 -0.86 C88.13 1.61, 179.78 -0.79, 228.23 1.03 M0.37 -0.65 C73.42 -1.48, 146.09 -1.76, 229.26 0.75 M227.28 -0.15 C228.18 19.14, 227.79 41.21, 227.66 61.59 M229.97 0.37 C228.04 14.49, 227.93 27.9, 228.56 59.83 M228.25 58.75 C175.76 60.13, 121.27 60.91, 1.43 59.23 M228.92 60.24 C166.98 58.66, 105.04 58.38, -0.6 60.49 M-1.22 59.03 C0.21 47.54, 0.13 31.25, -1.4 -1.24 M0.29 60.15 C0.95 41.49, 0.57 21.89, -0.33 -0.7" stroke="#000000" stroke-width="1" fill="none"></path></g><g transform="translate(639.87109375 225.06125042805468) rotate(0 109.5 12.5)"><text x="109.5" y="18" font-family="Virgil, Segoe UI Emoji" font-size="20px" fill="#000000" text-anchor="middle" style="white-space: pre;" direction="ltr">Subject summaries</text></g><g stroke-linecap="round" transform="translate(920.78515625 124.83859417805468) rotate(0 114.5 30)"><path d="M0.23 -1.09 C56.39 -0.22, 116.66 0.73, 227.91 -0.47 M-0.56 0.36 C56.35 2.03, 114.14 2.42, 228.94 -0.1 M229.93 1.06 C230.14 18, 227.18 36.53, 228.52 58.88 M229.41 0.1 C228.58 22.12, 229.15 43.56, 229.73 59.95 M230.24 58.44 C146.43 60.44, 68.79 59.97, 0.26 59.88 M229.36 60.52 C142.18 59.68, 53.53 59.5, -0.58 59.87 M0.9 60.6 C-0.06 39.86, 0.43 18.36, 0.22 -0.92 M-0.76 59.47 C0.38 46.28, 0.46 32.36, -0.92 -0.98" stroke="#000000" stroke-width="1" fill="none"></path></g><g transform="translate(925.78515625 129.83859417805468) rotate(0 109.5 25)"><text x="109.5" y="18" font-family="Virgil, Segoe UI Emoji" font-size="20px" fill="#000000" text-anchor="middle" style="white-space: pre;" direction="ltr">Dimensionalized </text><text x="109.5" y="43" font-family="Virgil, Segoe UI Emoji" font-size="20px" fill="#000000" text-anchor="middle" style="white-space: pre;" direction="ltr">Summaries</text></g><g stroke-linecap="round" transform="translate(919.6953125 282.7565629280547) rotate(0 114.5 30)"><path d="M-1.63 -1.67 C52.44 -0.73, 103.9 0.6, 229.01 -0.08 M-0.65 -0.33 C57.01 -1.88, 114.86 -1.34, 229.59 0.71 M230.76 0.21 C228.69 20.67, 229.53 40.34, 230.68 58 M229 0.36 C228.32 17.93, 230.1 33.33, 228.85 59 M228.55 61.05 C140.04 61.63, 49.67 61.37, -1.25 58.72 M228.4 60.64 C148.3 58.56, 66.04 57.84, -0.41 59.86 M-0.08 61.8 C-2.23 45.53, -2.21 28.14, 0.78 -1.28 M0.81 60.64 C-0.85 38.79, 0.6 18.36, 0.15 -0.19" stroke="#000000" stroke-width="1" fill="none"></path></g><g transform="translate(924.6953125 300.2565629280547) rotate(0 109.5 12.5)"><text x="109.5" y="18" font-family="Virgil, Segoe UI Emoji" font-size="20px" fill="#000000" text-anchor="middle" style="white-space: pre;" direction="ltr">Subject features</text></g><g stroke-linecap="round" transform="translate(1219.38671875 282.4284379280547) rotate(0 114.5 30)"><path d="M-1.25 -0.01 C70.24 -2.22, 138.6 1.04, 230.14 -0.12 M0.4 -0.06 C51.96 -1.89, 102.41 -0.96, 229.7 -0.24 M230.97 1.04 C228.06 14.55, 230.12 30.98, 230.63 58.2 M229.19 -0.89 C228.89 13.14, 229.46 26.78, 229.98 60.2 M230.33 58.9 C165.38 60.38, 102.82 61.82, -0.14 60.35 M229.36 60.15 C146.52 59.04, 64.19 58.93, -0.38 59.17 M-0.9 60.42 C0.5 41.01, 0.05 24.96, -0.61 0.41 M-0.21 59.63 C-0.34 45.78, 0.94 30.29, 0.85 -0.62" stroke="#000000" stroke-width="1" fill="none"></path></g><g transform="translate(1224.38671875 299.9284379280547) rotate(0 109.5 12.5)"><text x="109.5" y="18" font-family="Virgil, Segoe UI Emoji" font-size="20px" fill="#000000" text-anchor="middle" style="white-space: pre;" direction="ltr">CUPED estimates</text></g><g stroke-linecap="round"><g transform="translate(580.1171875 239.86984417805468) rotate(0 27.559931709612727 0.2652060737208899)"><path d="M-0.22 -0.6 C9.17 -0.81, 47.63 -1.37, 56.91 -1.11 M-1.79 1.71 C7.42 1.59, 46.23 0.27, 56.17 -0.15" stroke="#000000" stroke-width="1" fill="none"></path></g><g transform="translate(580.1171875 239.86984417805468) rotate(0 27.559931709612727 0.2652060737208899)"><path d="M28.99 11.14 C37.22 5.07, 49.8 1.48, 55.2 0.82 M29.13 10.07 C39.75 6.49, 49.54 3.49, 55.46 -0.34" stroke="#000000" stroke-width="1" fill="none"></path></g><g transform="translate(580.1171875 239.86984417805468) rotate(0 27.559931709612727 0.2652060737208899)"><path d="M28.27 -8.18 C36.77 -7.54, 49.6 -4.41, 55.2 0.82 M28.41 -9.25 C39.14 -5.9, 49.2 -1.97, 55.46 -0.34" stroke="#000000" stroke-width="1" fill="none"></path></g></g><g stroke-linecap="round"><g transform="translate(863.71484375 207.68625042805468) rotate(0 28.743867755769656 -25.30069305376611)"><path d="M0.88 0.61 C10.54 -7.86, 48.22 -41.09, 57.6 -49.68 M-0.12 -0.11 C9.45 -8.39, 47.46 -42.95, 56.88 -51.21" stroke="#000000" stroke-width="1" fill="none"></path></g><g transform="translate(863.71484375 207.68625042805468) rotate(0 28.743867755769656 -25.30069305376611)"><path d="M43.73 -24.06 C48.18 -32.08, 49.94 -39.98, 57.48 -51.91 M41.74 -25.14 C45.52 -31.43, 49.35 -38.83, 55.94 -51.95" stroke="#000000" stroke-width="1" fill="none"></path></g><g transform="translate(863.71484375 207.68625042805468) rotate(0 28.743867755769656 -25.30069305376611)"><path d="M30.05 -39.35 C38.36 -43.31, 43.84 -47.06, 57.48 -51.91 M28.05 -40.43 C35.43 -42.9, 42.77 -46.38, 55.94 -51.95" stroke="#000000" stroke-width="1" fill="none"></path></g></g><g stroke-linecap="round"><g transform="translate(863.5703125 269.9596879280547) rotate(0 27.913096365272168 25.039491797969674)"><path d="M1.07 -0.07 C10.21 8.54, 46.53 42.65, 55.65 51.23 M0.18 -1.15 C9.13 7.11, 45.75 40.86, 54.94 49.27" stroke="#000000" stroke-width="1" fill="none"></path></g><g transform="translate(863.5703125 269.9596879280547) rotate(0 27.913096365272168 25.039491797969674)"><path d="M27.12 38.5 C37.88 42.71, 48.32 46.94, 53.15 47.94 M27.9 37.29 C33.34 41.46, 40.66 43.72, 55.16 49.16" stroke="#000000" stroke-width="1" fill="none"></path></g><g transform="translate(863.5703125 269.9596879280547) rotate(0 27.913096365272168 25.039491797969674)"><path d="M41.01 23.39 C46.62 33.27, 51.97 43.05, 53.15 47.94 M41.79 22.18 C43.97 29.69, 48.12 35.41, 55.16 49.16" stroke="#000000" stroke-width="1" fill="none"></path></g></g><g stroke-linecap="round"><g transform="translate(1149.44140625 316.7565629280547) rotate(0 32.163621253520205 0.5438934722402564)"><path d="M-0.58 -0.05 C10.13 0.3, 54.02 2.02, 64.9 2.21 M1.32 -1.13 C11.87 -1.12, 53.87 -0.07, 64.35 0.49" stroke="#000000" stroke-width="1" fill="none"></path></g><g transform="translate(1149.44140625 316.7565629280547) rotate(0 32.163621253520205 0.5438934722402564)"><path d="M35.72 10.97 C47.24 7.47, 55.55 2.16, 63.74 -0.03 M35.92 10.16 C41.74 8.01, 48.68 5.84, 64.75 0.28" stroke="#000000" stroke-width="1" fill="none"></path></g><g transform="translate(1149.44140625 316.7565629280547) rotate(0 32.163621253520205 0.5438934722402564)"><path d="M36.46 -9.54 C47.74 -5.72, 55.78 -3.71, 63.74 -0.03 M36.67 -10.35 C42.51 -7.63, 49.27 -4.93, 64.75 0.28" stroke="#000000" stroke-width="1" fill="none"></path></g></g><g transform="translate(558.3866970148716 10) rotate(0 238.49999999999994 22.5)"><text x="0" y="32" font-family="Virgil, Segoe UI Emoji" font-size="36px" fill="#000000" text-anchor="start" style="white-space: pre;" direction="ltr">Experiment analysis pipeline</text></g></svg>