<svg width="48" height="49" viewBox="0 0 48 49" fill="none" xmlns="http://www.w3.org/2000/svg">
  <path
    d="M36.0001 5.39819L29.4454 9.76799C28.9859 10.0743 28.8617 10.6952 29.1681 11.1547C29.4744 11.6143 30.0953 11.7384 30.5548 11.4321L35.0001 8.46856V24.6C35.0001 25.1523 34.5524 25.6 34.0001 25.6H27.0001C26.2318 25.6 25.5309 25.8889 25.0001 26.3639C24.4694 25.8889 23.7685 25.6 23.0001 25.6H16.0001C15.4478 25.6 15.0001 25.1523 15.0001 24.6V12.4686L19.4454 15.4321C19.9049 15.7384 20.5258 15.6143 20.8322 15.1547C21.1385 14.6952 21.0143 14.0743 20.5548 13.768L14.0001 9.39819L7.44541 13.768C6.98588 14.0743 6.8617 14.6952 7.16806 15.1547C7.47441 15.6143 8.09528 15.7384 8.55481 15.4321L13.0001 12.4686V24.6C13.0001 26.2569 14.3433 27.6 16.0001 27.6H23.0001C23.5524 27.6 24.0001 28.0478 24.0001 28.6V42.6C24.0001 43.1523 24.4478 43.6 25.0001 43.6C25.5524 43.6 26.0001 43.1523 26.0001 42.6V28.6C26.0001 28.0478 26.4478 27.6 27.0001 27.6H34.0001C35.657 27.6 37.0001 26.2569 37.0001 24.6V8.46856L41.4454 11.4321C41.9049 11.7384 42.5258 11.6143 42.8322 11.1547C43.1385 10.6952 43.0143 10.0743 42.5548 9.76799L36.0001 5.39819Z"
    fill="#7964D3" />
</svg>
