<svg xmlns="http://www.w3.org/2000/svg" width="24" height="24" viewBox="0 0 24 24">
  <g fill="none" fill-rule="evenodd">
    <polygon points="0 0 24 0 24 24 0 24"/>
    <path fill="#7D8994" d="M1,0 L1,17 L18,17 L18,18 L0,18 L0,0 L1,0 Z M12.9413085,2.66453526e-14 C13.5512331,2.66453526e-14 14.0938758,0.372072392 14.3177024,0.926807242 L14.3635808,1.05797929 L14.6910625,2.13228979 C14.7214751,2.23080832 14.8109902,2.29581627 14.9095421,2.29867164 L14.9693571,2.29269741 L16.0632861,2.03902744 C16.7017538,1.895006 17.359542,2.18391574 17.6854589,2.75150833 C17.9863053,3.27543994 17.9395271,3.92389695 17.5817075,4.39486519 L17.4857937,4.50873479 L16.7194125,5.34431287 C16.6508577,5.41801385 16.6371468,5.52406059 16.6786729,5.61112363 L16.7201806,5.67205944 L17.4826855,6.49552561 C17.9275208,6.97452344 18.0087473,7.68731123 17.6830871,8.2541117 C17.3806884,8.78042642 16.7928518,9.06704125 16.1955662,8.98979825 L16.057689,8.96545742 L14.9727092,8.70992879 C14.8722518,8.68670949 14.7710626,8.73142781 14.7191978,8.81476237 L14.6943983,8.86916248 L14.3642425,9.9473767 C14.1758715,10.5756117 13.5976765,11.0058717 12.9418085,11.0058717 C12.3327882,11.0058717 11.790741,10.6348822 11.5661224,10.080636 L11.5200362,9.94956538 L11.1925544,8.87525487 C11.1621418,8.77673635 11.0726267,8.71172839 10.9740749,8.70887303 L10.9142598,8.71484726 L9.81973783,8.96865061 C9.18189053,9.1117175 8.52518994,8.82291217 8.19952978,8.2561117 C7.8989204,7.73291126 7.94500736,7.08531927 8.30336203,6.6124607 L8.39943635,6.49805944 L9.16320446,5.67323179 C9.23175921,5.59953082 9.24547016,5.49348407 9.20404937,5.40653472 L9.16264208,5.34570727 L8.40052437,4.52365647 C7.9543003,4.04483787 7.8722411,3.33110091 8.19815801,2.76350833 C8.50079514,2.23645807 9.0895866,1.94970068 9.68569372,2.0272724 L9.82325984,2.05169741 L10.9139077,2.30461588 C11.0143651,2.32783518 11.1155543,2.28311685 11.1669848,2.20121399 L11.1914681,2.14785615 L11.5181206,1.06101717 C11.7056558,0.43151591 12.2844666,2.66453526e-14 12.9413085,2.66453526e-14 Z M12.9413085,1 C12.7574306,1 12.5922764,1.10354247 12.5100526,1.26332788 L12.4761489,1.34768852 L12.1480625,2.43925487 C11.9696691,3.01714115 11.4029933,3.3748746 10.8146327,3.30129338 L10.6883571,3.27884726 L9.6002861,3.02651723 C9.38974582,2.9790249 9.17283443,3.07429541 9.06536049,3.26146401 C8.97323997,3.42189424 8.97996051,3.61773111 9.07697984,3.77044034 L9.13297485,3.8428374 L9.89541246,4.66523179 C10.3065369,5.10721827 10.335903,5.77435825 9.98412556,6.24784685 L9.89618058,6.35348523 L9.13268555,7.17801906 C8.98599725,7.33597276 8.9592121,7.57102075 9.06660137,7.75792814 C9.15864932,7.91813448 9.330899,8.01099046 9.50847303,8.00504764 L9.59735708,7.99369741 L10.6887092,7.74061588 C11.2779686,7.60441701 11.8720355,7.91454478 12.1044473,8.46127726 L12.1485808,8.58197929 L12.4772425,9.66016797 C12.5387643,9.86534909 12.7276024,10.0058717 12.9418085,10.0058717 C13.1254136,10.0058717 13.2903811,9.90263061 13.3730419,9.74216856 L13.4072186,9.65738219 L13.7385544,8.57528979 C13.9169478,7.99740352 14.4836237,7.63967007 15.0733405,7.71356825 L15.1999279,7.73608725 L16.2817378,7.99089406 C16.4920735,8.03807161 16.7086263,7.94283553 16.8160155,7.75592814 C16.9080635,7.5957218 16.9015343,7.40014687 16.8051034,7.24773227 L16.7494363,7.17548523 L15.9872045,6.35231287 C15.57608,5.91032639 15.546714,5.24318642 15.8971998,4.77109931 L15.9848232,4.66580988 L16.7515244,3.8298882 C16.8986706,3.67199359 16.9257304,3.43663261 16.8182564,3.24946401 C16.7261359,3.08903378 16.5536124,2.99612052 16.3754593,3.00233376 L16.2862598,3.01384726 L15.1949077,3.26692879 C14.6056483,3.40312766 14.0115814,3.09299989 13.7791696,2.54626741 L13.7350362,2.42556538 L13.4061206,1.34652749 C13.3448718,1.14093281 13.1558326,1 12.9413085,1 Z M12.9413085,3.56777233 C14.011084,3.56777233 14.8783085,4.43499677 14.8783085,5.50477233 C14.8783085,6.57454789 14.011084,7.44177233 12.9413085,7.44177233 C11.8715329,7.44177233 11.0043085,6.57454789 11.0043085,5.50477233 C11.0043085,4.43499677 11.8715329,3.56777233 12.9413085,3.56777233 Z M12.9413085,4.56777233 C12.4238177,4.56777233 12.0043085,4.98728152 12.0043085,5.50477233 C12.0043085,6.02226314 12.4238177,6.44177233 12.9413085,6.44177233 C13.4587993,6.44177233 13.8783085,6.02226314 13.8783085,5.50477233 C13.8783085,4.98728152 13.4587993,4.56777233 12.9413085,4.56777233 Z" transform="translate(3 3)"/>
  </g>
</svg>
